<svg xmlns="http://www.w3.org/2000/svg" xmlns:xlink="http://www.w3.org/1999/xlink" width="175pt" height="356" viewBox="0 0 174.5 267.2"><g id="graph0" class="graph" transform="scale(1 1) rotate(0) translate(4 263.2)"><title>olympians</title><polygon fill="#fff" stroke="transparent" points="-4 4 -4 -263.2 170.5 -263.2 170.5 4 -4 4"/><g id="node1" class="node"><title>Kids</title><ellipse cx="76.5" cy="-241.2" fill="#000" stroke="#000" rx="1.8" ry="1.8"/></g><g id="node3" class="node"><title>Leto</title><polygon fill="none" stroke="#000" points="150.5 -259.2 96.5 -259.2 96.5 -223.2 150.5 -223.2 150.5 -259.2"/><text x="123.5" y="-237.5" fill="#000" font-family="Times,serif" font-size="14" text-anchor="middle">Leto</text></g><g id="edge2" class="edge"><title>Kids--Leto</title><path fill="none" stroke="#000" d="M78.5195,-241.2C81.8228,-241.2 88.7648,-241.2 96.2279,-241.2"/></g><g id="node2" class="node"><title>Zeus</title><polygon fill="none" stroke="#000" points="56.5 -259.2 2.5 -259.2 2.5 -223.2 56.5 -223.2 56.5 -259.2"/><text x="29.5" y="-237.5" fill="#000" font-family="Times,serif" font-size="14" text-anchor="middle">Zeus</text></g><g id="edge1" class="edge"><title>Zeus--Kids</title><path fill="none" stroke="#000" d="M56.5678,-241.2C64.0771,-241.2 71.0888,-241.2 74.4389,-241.2"/></g><g id="node4" class="node"><title>Parents</title><ellipse cx="76.5" cy="-185.4" fill="#000" stroke="#000" rx="1.8" ry="1.8"/></g><g id="edge5" class="edge"><title>Parents--Kids</title><path fill="none" stroke="#000" d="M76.5,-187.2566C76.5,-195.7285 76.5,-230.675 76.5,-239.2792"/></g><g id="node6" class="node"><title>ApolloParents</title><ellipse cx="102.5" cy="-185.4" fill="#000" stroke="#000" rx="1.8" ry="1.8"/></g><g id="edge4" class="edge"><title>Parents--ApolloParents</title><path fill="none" stroke="#000" d="M78.2059,-186.2C82.9057,-186.2 96.0062,-186.2 100.7537,-186.2"/></g><g id="node5" class="node"><title>ArtemisParents</title><ellipse cx="46.5" cy="-185.4" fill="#000" stroke="#000" rx="1.8" ry="1.8"/></g><g id="edge3" class="edge"><title>ArtemisParents--Parents</title><path fill="none" stroke="#000" d="M48.1129,-186.2C53.2732,-186.2 69.3544,-186.2 74.7298,-186.2"/></g><g id="node7" class="node"><title>Artemis</title><polygon fill="none" stroke="#000" points="61 -147.6 0 -147.6 0 -111.6 61 -111.6 61 -147.6"/><text x="30.5" y="-125.9" fill="#000" font-family="Times,serif" font-size="14" text-anchor="middle">Artemis</text></g><g id="edge6" class="edge"><title>Artemis--ArtemisParents</title><path fill="none" stroke="#000" d="M46.5,-147.871C46.5,-161.0933 46.5,-177.6044 46.5,-183.3312"/></g><g id="node8" class="node"><title>Apollo</title><polygon fill="none" stroke="#000" points="133.5 -147.6 79.5 -147.6 79.5 -111.6 133.5 -111.6 133.5 -147.6"/><text x="106.5" y="-125.9" fill="#000" font-family="Times,serif" font-size="14" text-anchor="middle">Apollo</text></g><g id="edge7" class="edge"><title>Apollo--ApolloParents</title><path fill="none" stroke="#000" d="M102.5,-147.871C102.5,-161.0933 102.5,-177.6044 102.5,-183.3312"/></g><g id="node9" class="node"><title>ApolloKids</title><ellipse cx="106.5" cy="-73.8" fill="#000" stroke="#000" rx="1.8" ry="1.8"/></g><g id="edge10" class="edge"><title>ApolloKids--Apollo</title><path fill="none" stroke="#000" d="M106.5,-75.6566C106.5,-81.1784 106.5,-97.9474 106.5,-111.3386"/></g><g id="node11" class="node"><title>AeacusFather</title><ellipse cx="133.5" cy="-73.8" fill="#000" stroke="#000" rx="1.8" ry="1.8"/></g><g id="edge9" class="edge"><title>ApolloKids--AeacusFather</title><path fill="none" stroke="#000" d="M108.2715,-74.2C113.1521,-74.2 126.7565,-74.2 131.6865,-74.2"/></g><g id="node10" class="node"><title>AsclepiusFather</title><ellipse cx="75.5" cy="-73.8" fill="#000" stroke="#000" rx="1.8" ry="1.8"/></g><g id="edge8" class="edge"><title>AsclepiusFather--ApolloKids</title><path fill="none" stroke="#000" d="M77.534,-74.2C83.2453,-74.2 99.3619,-74.2 104.7332,-74.2"/></g><g id="node12" class="node"><title>Asclepius</title><polygon fill="none" stroke="#000" points="92.5 -36 22.5 -36 22.5 0 92.5 0 92.5 -36"/><text x="57.5" y="-14.3" fill="#000" font-family="Times,serif" font-size="14" text-anchor="middle">Asclepius</text></g><g id="edge11" class="edge"><title>Asclepius--AsclepiusFather</title><path fill="none" stroke="#000" d="M75.5,-36.271C75.5,-49.4933 75.5,-66.0044 75.5,-71.7312"/></g><g id="node13" class="node"><title>Aeacus</title><polygon fill="none" stroke="#000" points="166.5 -36 110.5 -36 110.5 0 166.5 0 166.5 -36"/><text x="138.5" y="-14.3" fill="#000" font-family="Times,serif" font-size="14" text-anchor="middle">Aeacus</text></g><g id="edge12" class="edge"><title>Aeacus--AeacusFather</title><path fill="none" stroke="#000" d="M133.5,-36.271C133.5,-49.4933 133.5,-66.0044 133.5,-71.7312"/></g></g></svg>