<svg xmlns="http://www.w3.org/2000/svg" xmlns:xlink="http://www.w3.org/1999/xlink" width="240" height="504" viewBox="0 0 180 378"><g id="graph0" class="graph" transform="scale(1 1) rotate(0) translate(4 374)"><title>filtering</title><polygon fill="#fff" stroke="transparent" points="-4 4 -4 -374 176 -374 176 4 -4 4"/><g id="node1" class="node"><title>Database</title><polygon fill="none" stroke="#000" points="122.5 -36 56.5 -36 56.5 0 122.5 0 122.5 -36"/><text x="89.5" y="-14.3" fill="#000" font-family="Times,serif" font-size="14" text-anchor="middle">Database</text></g><g id="node2" class="node"><title>ORM</title><polygon fill="none" stroke="#000" points="116.5 -123 62.5 -123 62.5 -87 116.5 -87 116.5 -123"/><text x="89.5" y="-101.3" fill="#000" font-family="Times,serif" font-size="14" text-anchor="middle">ORM</text></g><g id="edge1" class="edge"><title>Database-&gt;ORM</title><path fill="none" stroke="#000" d="M89.4999,-46.1844C89.4999,-56.029 89.4999,-67.0734 89.4999,-76.9103"/><polygon fill="#000" stroke="#000" points="93 -46.026 89.5 -36.026 86 -46.026 93 -46.026"/><polygon fill="#000" stroke="#000" points="86 -76.997 89.5 -86.997 93 -76.997 86 -76.997"/><text x="106.5" y="-57.8" fill="#000" font-family="Times,serif" font-size="14" text-anchor="middle">SQL</text></g><g id="node3" class="node"><title>Application</title><polygon fill="none" stroke="#000" points="129.5 -210 49.5 -210 49.5 -174 129.5 -174 129.5 -210"/><text x="89.5" y="-188.3" fill="#000" font-family="Times,serif" font-size="14" text-anchor="middle">Application</text></g><g id="edge2" class="edge"><title>ORM-&gt;Application</title><path fill="none" stroke="#000" d="M89.4999,-133.1844C89.4999,-143.029 89.4999,-154.0734 89.4999,-163.9103"/><polygon fill="#000" stroke="#000" points="93 -133.026 89.5 -123.026 86 -133.026 93 -133.026"/><polygon fill="#000" stroke="#000" points="86 -163.997 89.5 -173.997 93 -163.997 86 -163.997"/><text x="125.5" y="-144.8" fill="#000" font-family="Times,serif" font-size="14" text-anchor="middle">Data model</text></g><g id="node4" class="node"><title>oso library</title><polygon fill="none" stroke="#000" points="127 -283 52 -283 52 -247 127 -247 127 -283"/><text x="89.5" y="-261.3" fill="#000" font-family="Times,serif" font-size="14" text-anchor="middle">oso library</text></g><g id="edge3" class="edge"><title>Application-&gt;oso library</title><path fill="none" stroke="#000" d="M77.6684,-210.0449C76.0715,-218.1172 75.6209,-227.8236 76.3164,-236.8183"/><polygon fill="#000" stroke="#000" points="72.871 -237.459 77.659 -246.91 79.809 -236.535 72.871 -237.459"/><text x="38" y="-217.481" fill="#000" font-family="Times,serif" font-size="14" text-anchor="middle">Allow query</text></g><g id="edge4" class="edge"><title>oso library-&gt;Application</title><path fill="none" stroke="#000" d="M101.3403,-246.9096C102.9328,-238.8313 103.3792,-229.1231 102.6794,-220.1312"/><polygon fill="#000" stroke="#000" points="106.125 -219.493 101.331 -210.045 99.187 -220.421 106.125 -219.493"/><text x="137.5" y="-217.068" fill="#000" font-family="Times,serif" font-size="14" text-anchor="middle">ORM ﬁlter</text></g><g id="node5" class="node"><title>Policy</title><polygon fill="none" stroke="#000" points="116.5 -370 62.5 -370 62.5 -334 116.5 -334 116.5 -370"/><text x="89.5" y="-348.3" fill="#000" font-family="Times,serif" font-size="14" text-anchor="middle">Policy</text></g><g id="edge5" class="edge"><title>oso library-&gt;Policy</title><path fill="none" stroke="#000" d="M89.4999,-293.1844C89.4999,-306.5898 89.4999,-322.2199 89.4999,-333.9966"/><polygon fill="#000" stroke="#000" points="93 -293.026 89.5 -283.026 86 -293.026 93 -293.026"/><text x="106.5" y="-304.8" fill="#000" font-family="Times,serif" font-size="14" text-anchor="middle">Rule</text></g></g></svg>