<svg xmlns="http://www.w3.org/2000/svg" xmlns:xlink="http://www.w3.org/1999/xlink" width="335pt" height="304" viewBox="0 0 335 228"><g id="graph0" class="graph" transform="scale(1 1) rotate(0) translate(36 192)"><title>%3</title><polygon fill="#fff" stroke="transparent" points="-36 36 -36 -192 299 -192 299 36 -36 36"/><g id="node1" class="node"><title>User</title><polygon fill="none" stroke="#000" points="222 -136 222 -156 258 -156 258 -136 222 -136"/><text x="226.78" y="-142.8" font-family="Times,serif" font-size="14" font-style="italic" text-anchor="start">User</text><polygon fill="none" stroke="#000" points="222 -116 222 -136 258 -136 258 -116 222 -116"/><text x="234.56" y="-121.8" font-family="Times,serif" font-size="14" text-anchor="start">id</text><polygon fill="none" stroke="#000" points="222 -96 222 -116 258 -116 258 -96 222 -96"/><text x="224.84" y="-101.8" font-family="Times,serif" font-size="14" text-anchor="start">name</text></g><g id="node2" class="node"><title>WidgetRole</title><polygon fill="none" stroke="#000" points=".5 -118 .5 -138 73.5 -138 73.5 -118 .5 -118"/><text x="3.45" y="-124.8" font-family="Times,serif" font-size="14" font-style="italic" text-anchor="start">WidgetRole</text><polygon fill="none" stroke="#000" points=".5 -98 .5 -118 73.5 -118 73.5 -98 .5 -98"/><text x="21.84" y="-103.8" font-family="Times,serif" font-size="14" text-anchor="start">name</text><polygon fill="none" stroke="#000" points=".5 -78 .5 -98 73.5 -98 73.5 -78 .5 -78"/><text x="16.39" y="-83.8" font-family="Times,serif" font-size="14" text-anchor="start">user_id</text><polygon fill="none" stroke="#000" points=".5 -58 .5 -78 73.5 -78 73.5 -58 .5 -58"/><text x="9" y="-63.8" font-family="Times,serif" font-size="14" text-anchor="start">widget_id</text></g><g id="edge1" class="edge"><title>WidgetRole:8-&gt;User:1</title><path fill="none" stroke="#000" d="M73,-88C137.33,-88 151.65,-122.1 210.7,-125.69"/><polygon fill="#000" stroke="#000" points="210.9 -129.2 221 -126 211.11 -122.2 210.9 -129.2"/></g><g id="node3" class="node"><title>Widget</title><polygon fill="none" stroke="#000" points="217 -40 217 -60 263 -60 263 -40 217 -40"/><text x="219.67" y="-46.8" font-family="Times,serif" font-size="14" font-style="italic" text-anchor="start">Widget</text><polygon fill="none" stroke="#000" points="217 -20 217 -40 263 -40 263 -20 217 -20"/><text x="234.56" y="-25.8" font-family="Times,serif" font-size="14" text-anchor="start">id</text><polygon fill="none" stroke="#000" points="217 0 217 -20 263 -20 263 0 217 0"/><text x="224.84" y="-5.8" font-family="Times,serif" font-size="14" text-anchor="start">name</text></g><g id="edge2" class="edge"><title>WidgetRole:9-&gt;Widget:a</title><path fill="none" stroke="#000" d="M73,-68C135.7,-68 149.43,-33.9 206.97,-30.31"/><polygon fill="#000" stroke="#000" points="207.11 -33.8 217 -30 206.9 -26.81 207.11 -33.8"/></g></g></svg>