<svg xmlns="http://www.w3.org/2000/svg" xmlns:xlink="http://www.w3.org/1999/xlink" width="469pt" height="329pt" viewBox="0 0 469.33 329"><g id="graph0" class="graph" transform="scale(1 1) rotate(0) translate(4 325)"><title>arch</title><polygon fill="#fff" stroke="transparent" points="-4 4 -4 -325 465.333 -325 465.333 4 -4 4"/><g id="node1" class="node"><title>app</title><polygon fill="none" stroke="#000" points="274.333 -321 194.333 -321 194.333 -285 274.333 -285 274.333 -321"/><text x="234.333" y="-299.3" fill="#000" font-family="Times,serif" font-size="14" text-anchor="middle">Application</text></g><g id="node2" class="node"><title>oso</title><polygon fill="none" stroke="#000" points="275.833 -226 192.833 -226 192.833 -190 275.833 -190 275.833 -226"/><text x="234.333" y="-204.3" fill="#000" font-family="Times,serif" font-size="14" text-anchor="middle">Oso Library</text></g><g id="edge1" class="edge"><title>app-&gt;oso</title><path fill="none" stroke="#000" d="M221,-284.683C221,-284.683 221,-236.2607 221,-236.2607"/><polygon fill="#000" stroke="#000" points="224.5 -236.261 221 -226.261 217.5 -236.261 224.5 -236.261"/><text x="0" y="-265.272" fill="#000" font-family="Times,serif" font-size="14" text-anchor="start">Call:</text><text x="31" y="-265.272" fill="#000" font-family="monospace" font-size="14" text-anchor="start">oso.is_allowed(a,b,c)</text></g><g id="edge2" class="edge"><title>oso-&gt;app</title><path fill="none" stroke="#000" d="M247.6667,-226.317C247.6667,-226.317 247.6667,-274.7393 247.6667,-274.7393"/><polygon fill="#000" stroke="#000" points="244.167 -274.739 247.667 -284.739 251.167 -274.739 244.167 -274.739"/><text x="264.333" y="-252.8" fill="#000" font-family="Times,serif" font-size="14" text-anchor="start">Return:</text><text x="309.333" y="-252.8" fill="#000" font-family="monospace" font-size="14" text-anchor="start">true</text><text x="343.333" y="-252.8" fill="#000" font-family="Times,serif" font-size="14" text-anchor="start">/</text><text x="347.333" y="-252.8" fill="#000" font-family="monospace" font-size="14" text-anchor="start">false</text></g><g id="node3" class="node"><title>kb</title><polygon fill="none" stroke="#000" points="288.833 -131 179.833 -131 179.833 -95 288.833 -95 288.833 -131"/><text x="234.333" y="-109.3" fill="#000" font-family="Times,serif" font-size="14" text-anchor="middle">Knowledge Base</text></g><g id="edge3" class="edge"><title>oso-&gt;kb</title><path fill="none" stroke="#000" d="M220.5,-189.683C220.5,-189.683 220.5,-141.2607 220.5,-141.2607"/><polygon fill="#000" stroke="#000" points="224 -141.261 220.5 -131.261 217 -141.261 224 -141.261"/><text x="62.5" y="-170.272" fill="#000" font-family="Times,serif" font-size="14" text-anchor="start">Query:</text><text x="104.5" y="-170.272" fill="#000" font-family="monospace" font-size="14" text-anchor="start">allow(a,b,c)</text></g><g id="edge4" class="edge"><title>kb-&gt;oso</title><path fill="none" stroke="#000" d="M248.1667,-131.317C248.1667,-131.317 248.1667,-179.7393 248.1667,-179.7393"/><polygon fill="#000" stroke="#000" points="244.667 -179.739 248.167 -189.739 251.667 -179.739 244.667 -179.739"/><text x="264.333" y="-157.8" fill="#000" font-family="Times,serif" font-size="14" text-anchor="start">Results:</text><text x="312.333" y="-157.8" fill="#000" font-family="monospace" font-size="14" text-anchor="start">{a:x,b:y,c:z}, ...</text></g><g id="node4" class="node"><title>policy</title><polygon fill="none" stroke="#000" points="299.333 -36 169.333 -36 169.333 0 299.333 0 299.333 -36"/><text x="234.333" y="-14.3" fill="#000" font-family="Times,serif" font-size="14" text-anchor="middle">Authorization Policy</text></g><g id="edge5" class="edge"><title>kb-&gt;policy</title><path fill="none" stroke="#000" d="M234.3333,-84.683C234.3333,-84.683 234.3333,-36.2607 234.3333,-36.2607"/><polygon fill="#000" stroke="#000" points="230.833 -84.683 234.333 -94.683 237.833 -84.683 230.833 -84.683"/><text x="234.333" y="-62.8" fill="#000" font-family="Times,serif" font-size="14" text-anchor="start">Rules:</text><text x="292.333" y="-62.8" fill="#000" font-family="monospace" font-size="14" text-anchor="start">allow(x,y,z); ...</text></g></g></svg>